<?xml version="1.0" encoding="UTF-8"?>
<svg xmlns="http://www.w3.org/2000/svg" width="19.923" height="15.179" viewBox="0 0 19.923 15.179">
  <path d="M42.892,33.281a.051.051,0,0,0-.026-.024A16.435,16.435,0,0,0,38.811,32a.062.062,0,0,0-.065.031,11.436,11.436,0,0,0-.5,1.037,15.175,15.175,0,0,0-4.555,0,10.489,10.489,0,0,0-.513-1.037A.064.064,0,0,0,33.108,32a16.389,16.389,0,0,0-4.055,1.257.058.058,0,0,0-.027.023,16.8,16.8,0,0,0-2.943,11.335.068.068,0,0,0,.026.047,16.523,16.523,0,0,0,4.975,2.514.064.064,0,0,0,.07-.023A11.8,11.8,0,0,0,32.171,45.5a.063.063,0,0,0-.035-.088,10.882,10.882,0,0,1-1.554-.74.064.064,0,0,1-.006-.106c.1-.078.209-.16.309-.242a.062.062,0,0,1,.064-.009,11.786,11.786,0,0,0,10.012,0,.061.061,0,0,1,.065.008c.1.082.2.164.309.243a.064.064,0,0,1-.005.106,10.212,10.212,0,0,1-1.555.74.064.064,0,0,0-.034.088,13.25,13.25,0,0,0,1.017,1.654.063.063,0,0,0,.07.024,16.469,16.469,0,0,0,4.983-2.514.064.064,0,0,0,.026-.046A16.691,16.691,0,0,0,42.892,33.281ZM32.658,42.353a2.02,2.02,0,0,1,0-4.014,2.02,2.02,0,0,1,0,4.014Zm6.62,0a2.02,2.02,0,0,1,0-4.014,2.02,2.02,0,0,1,0,4.014Z" transform="translate(-26 -31.999)" fill="#259da8"></path>
</svg>
