<?xml version="1.0" encoding="UTF-8"?>
<svg xmlns="http://www.w3.org/2000/svg" width="19.182" height="18.703" viewBox="0 0 19.182 18.703">
  <path d="M6.416,23.06c0,.077-.089.139-.2.139-.128.012-.217-.05-.217-.139s.089-.139.2-.139S6.416,22.971,6.416,23.06Zm-1.2-.174c-.027.077.05.166.166.19A.181.181,0,0,0,5.619,23c.023-.077-.05-.166-.166-.2A.2.2,0,0,0,5.213,22.886Zm1.709-.066c-.112.027-.19.1-.178.19s.112.128.228.1.19-.1.178-.178S7.035,22.808,6.923,22.82ZM9.467,8A9.274,9.274,0,0,0,0,17.436a9.7,9.7,0,0,0,6.555,9.251c.5.089.669-.217.669-.468s-.012-1.562-.012-2.375c0,0-2.707.58-3.276-1.152,0,0-.441-1.125-1.075-1.415,0,0-.886-.607.062-.6a2.041,2.041,0,0,1,1.493,1,2.044,2.044,0,0,0,2.819.808,2.149,2.149,0,0,1,.619-1.3c-2.162-.24-4.343-.553-4.343-4.273a2.931,2.931,0,0,1,.913-2.278,3.654,3.654,0,0,1,.1-2.626c.808-.251,2.669,1.044,2.669,1.044a9.136,9.136,0,0,1,4.857,0s1.86-1.3,2.669-1.044a3.652,3.652,0,0,1,.1,2.626,3.006,3.006,0,0,1,1,2.278c0,3.732-2.278,4.03-4.44,4.273a2.287,2.287,0,0,1,.657,1.794c0,1.3-.012,2.916-.012,3.233,0,.251.178.557.669.468a9.607,9.607,0,0,0,6.49-9.243A9.483,9.483,0,0,0,9.467,8ZM3.759,21.339c-.05.039-.039.128.027.2s.151.089.2.039.039-.128-.027-.2S3.809,21.288,3.759,21.339Zm-.418-.313c-.027.05.012.112.089.151a.115.115,0,0,0,.166-.027c.027-.05-.012-.112-.089-.151C3.43,20.975,3.369,20.987,3.341,21.025ZM4.594,22.4c-.062.05-.039.166.05.24.089.089.2.1.251.039s.027-.166-.05-.24C4.761,22.352,4.645,22.34,4.594,22.4Zm-.441-.569c-.062.039-.062.139,0,.228s.166.128.217.089a.176.176,0,0,0,0-.24c-.054-.089-.155-.128-.217-.077Z" transform="translate(0 -8)" fill="#259da8"></path>
</svg>
