<?xml version="1.0" encoding="UTF-8"?>
<!DOCTYPE svg PUBLIC "-//W3C//DTD SVG 1.1//EN" "http://www.w3.org/Graphics/SVG/1.1/DTD/svg11.dtd">
<svg xmlns="http://www.w3.org/2000/svg" version="1.1" width="70px" height="70px" style="shape-rendering:geometricPrecision; text-rendering:geometricPrecision; image-rendering:optimizeQuality; fill-rule:evenodd; clip-rule:evenodd" xmlns:xlink="http://www.w3.org/1999/xlink">
<g><path style="opacity:0.026" fill="#929291" d="M 29.5,-0.5 C 30.5,-0.5 31.5,-0.5 32.5,-0.5C 32.8333,0.5 33.5,1.16667 34.5,1.5C 34.1583,2.33825 33.4916,2.67158 32.5,2.5C 31.5,1.16667 30.5,1.16667 29.5,2.5C 28.5084,2.67158 27.8417,2.33825 27.5,1.5C 28.5,1.16667 29.1667,0.5 29.5,-0.5 Z"/></g>
<g><path style="opacity:0.024" fill="#a7a7a7" d="M 36.5,-0.5 C 37.8333,-0.5 39.1667,-0.5 40.5,-0.5C 40.8333,0.166667 41.1667,0.833333 41.5,1.5C 40.8333,1.5 40.5,1.83333 40.5,2.5C 39.1667,1.16667 37.8333,1.16667 36.5,2.5C 36.5,1.83333 36.5,1.16667 36.5,0.5C 36.5,0.166667 36.5,-0.166667 36.5,-0.5 Z"/></g>
<g><path style="opacity:0.051" fill="#888887" d="M 6.5,-0.5 C 7.5,-0.5 8.5,-0.5 9.5,-0.5C 10.8333,2.16667 12.1667,2.16667 13.5,-0.5C 14.8333,-0.5 16.1667,-0.5 17.5,-0.5C 18.8333,2.16667 20.1667,2.16667 21.5,-0.5C 22.8333,-0.5 24.1667,-0.5 25.5,-0.5C 25.5,-0.166667 25.5,0.166667 25.5,0.5C 25.5,1.16667 25.5,1.83333 25.5,2.5C 23.1707,0.997634 21.8373,1.6643 21.5,4.5C 20.0413,4.56745 18.7079,4.23411 17.5,3.5C 16.1667,0.833333 14.8333,0.833333 13.5,3.5C 12.6618,3.84171 12.3284,4.50838 12.5,5.5C 12.1667,5.5 11.8333,5.5 11.5,5.5C 11.5912,3.30228 10.9245,2.96895 9.5,4.5C 9.36784,1.99309 8.36784,1.32642 6.5,2.5C 5.50838,2.67158 4.84171,2.33825 4.5,1.5C 5.5,1.16667 6.16667,0.5 6.5,-0.5 Z"/></g>
<g><path style="opacity:0.051" fill="#878686" d="M 44.5,-0.5 C 45.8333,-0.5 47.1667,-0.5 48.5,-0.5C 49.8333,2.16667 51.1667,2.16667 52.5,-0.5C 53.5,-0.5 54.5,-0.5 55.5,-0.5C 57.1667,2.16667 58.8333,2.16667 60.5,-0.5C 61.5,-0.5 62.5,-0.5 63.5,-0.5C 65.0445,1.80495 67.0445,2.13828 69.5,0.5C 69.5,0.833333 69.5,1.16667 69.5,1.5C 68.5,1.83333 67.8333,2.5 67.5,3.5C 66.0413,3.56745 64.7079,3.23411 63.5,2.5C 62.0379,1.52909 60.7046,1.86242 59.5,3.5C 58.6618,3.84171 58.3284,4.50838 58.5,5.5C 58.1667,5.5 57.8333,5.5 57.5,5.5C 57.6716,4.50838 57.3382,3.84171 56.5,3.5C 54.5774,0.782167 53.244,1.1155 52.5,4.5C 51.5084,4.32842 50.8417,4.66175 50.5,5.5C 50.1667,5.5 49.8333,5.5 49.5,5.5C 49.6716,4.50838 49.3382,3.84171 48.5,3.5C 47.1667,0.833333 45.8333,0.833333 44.5,3.5C 44.1667,3.5 43.8333,3.5 43.5,3.5C 43.5,2.83333 43.5,2.16667 43.5,1.5C 43.8333,0.833333 44.1667,0.166667 44.5,-0.5 Z M 56.5,3.5 C 55.5967,5.62045 54.2633,5.95378 52.5,4.5C 53.244,1.1155 54.5774,0.782167 56.5,3.5 Z"/></g>
<g><path style="opacity:0.047" fill="#5b5b5a" d="M 25.5,0.5 C 26.1667,0.833333 26.8333,1.16667 27.5,1.5C 27.8417,2.33825 28.5084,2.67158 29.5,2.5C 30.5,6.5 31.5,6.5 32.5,2.5C 33.4916,2.67158 34.1583,2.33825 34.5,1.5C 35.1667,1.16667 35.8333,0.833333 36.5,0.5C 36.5,1.16667 36.5,1.83333 36.5,2.5C 37.8333,6.5 39.1667,6.5 40.5,2.5C 40.5,1.83333 40.8333,1.5 41.5,1.5C 42.1667,1.5 42.8333,1.5 43.5,1.5C 43.5,2.16667 43.5,2.83333 43.5,3.5C 43.5,4.16667 43.5,4.83333 43.5,5.5C 40.1155,6.24404 39.7822,7.57737 42.5,9.5C 42.1667,10.5 41.5,11.1667 40.5,11.5C 39.9976,9.9153 38.9976,9.4153 37.5,10C 36.8288,10.9862 36.8288,12.1529 37.5,13.5C 36.8333,13.5 36.1667,13.5 35.5,13.5C 35.1667,12.1667 34.8333,12.1667 34.5,13.5C 33.5,13.5 32.5,13.5 31.5,13.5C 34.1812,11.6922 34.0146,10.3589 31,9.5C 27.9854,10.3589 27.8188,11.6922 30.5,13.5C 29.5,13.5 28.5,13.5 27.5,13.5C 27.1667,12.1667 26.8333,12.1667 26.5,13.5C 25.8333,13.5 25.1667,13.5 24.5,13.5C 26.0337,11.6579 25.7003,10.3246 23.5,9.5C 20.8598,10.873 20.8598,12.2064 23.5,13.5C 23.1667,14.1667 22.8333,14.8333 22.5,15.5C 22.1667,15.5 21.8333,15.5 21.5,15.5C 20.4574,13.1481 19.1241,12.9815 17.5,15C 18.0779,16.417 19.0779,17.2504 20.5,17.5C 20.5,18.5 20.5,19.5 20.5,20.5C 20.1667,20.5 19.8333,20.5 19.5,20.5C 18.8333,20.5 18.1667,20.5 17.5,20.5C 17.6716,19.5084 17.3382,18.8417 16.5,18.5C 15.8333,18.5 15.5,18.1667 15.5,17.5C 14.5,17.5 13.5,17.5 12.5,17.5C 11.1667,18.5 11.1667,19.5 12.5,20.5C 11.2905,20.9321 10.2905,21.5987 9.5,22.5C 9.5,23.5 9.5,24.5 9.5,25.5C 8.5,24.1667 7.5,24.1667 6.5,25.5C 6.5,24.8333 6.16667,24.5 5.5,24.5C 6.42856,22.6783 5.7619,21.3449 3.5,20.5C 2.83333,20.5 2.5,20.1667 2.5,19.5C 2.16667,18.8333 1.83333,18.1667 1.5,17.5C 2.16667,17.5 2.83333,17.5 3.5,17.5C 6.82035,16.2387 7.15368,14.572 4.5,12.5C 3.89022,11.609 3.55688,10.609 3.5,9.5C 6.16667,8.16667 6.16667,6.83333 3.5,5.5C 3.5,4.16667 3.5,2.83333 3.5,1.5C 3.83333,1.5 4.16667,1.5 4.5,1.5C 4.84171,2.33825 5.50838,2.67158 6.5,2.5C 5.3424,3.94979 5.8424,4.94979 8,5.5C 8.38258,4.94404 8.88258,4.61071 9.5,4.5C 10.9245,2.96895 11.5912,3.30228 11.5,5.5C 9.10819,6.74212 9.27485,8.07546 12,9.5C 13.7683,8.31814 13.9349,6.9848 12.5,5.5C 12.3284,4.50838 12.6618,3.84171 13.5,3.5C 14.8333,6.16667 16.1667,6.16667 17.5,3.5C 18.7079,4.23411 20.0413,4.56745 21.5,4.5C 23.8293,6.00237 25.1627,5.3357 25.5,2.5C 25.5,1.83333 25.5,1.16667 25.5,0.5 Z M 40.5,2.5 C 39.1667,6.5 37.8333,6.5 36.5,2.5C 37.8333,1.16667 39.1667,1.16667 40.5,2.5 Z M 32.5,2.5 C 31.5,6.5 30.5,6.5 29.5,2.5C 30.5,1.16667 31.5,1.16667 32.5,2.5 Z M 25.5,2.5 C 25.1627,5.3357 23.8293,6.00237 21.5,4.5C 21.8373,1.6643 23.1707,0.997634 25.5,2.5 Z M 17.5,3.5 C 16.1667,6.16667 14.8333,6.16667 13.5,3.5C 14.8333,0.833333 16.1667,0.833333 17.5,3.5 Z M 9.5,4.5 C 8.88258,4.61071 8.38258,4.94404 8,5.5C 5.8424,4.94979 5.3424,3.94979 6.5,2.5C 8.36784,1.32642 9.36784,1.99309 9.5,4.5 Z M 11.5,5.5 C 11.8333,5.5 12.1667,5.5 12.5,5.5C 13.9349,6.9848 13.7683,8.31814 12,9.5C 9.27485,8.07546 9.10819,6.74212 11.5,5.5 Z M 18.5,5.5 C 21.8606,6.20318 22.1939,7.53651 19.5,9.5C 17.3576,8.56289 17.0243,7.22955 18.5,5.5 Z M 26.5,5.5 C 30.3368,6.20302 30.5034,7.53635 27,9.5C 25.2317,8.31814 25.0651,6.9848 26.5,5.5 Z M 33.5,5.5 C 36.5688,5.96296 37.0688,7.29629 35,9.5C 32.988,8.43351 32.488,7.10018 33.5,5.5 Z M 6.5,9.5 C 9.56879,9.96296 10.0688,11.2963 8,13.5C 5.98801,12.4335 5.48801,11.1002 6.5,9.5 Z M 14.5,9.5 C 17.5688,9.96296 18.0688,11.2963 16,13.5C 13.988,12.4335 13.488,11.1002 14.5,9.5 Z M 24.5,13.5 C 24.1667,13.5 23.8333,13.5 23.5,13.5C 20.8598,12.2064 20.8598,10.873 23.5,9.5C 25.7003,10.3246 26.0337,11.6579 24.5,13.5 Z M 31.5,13.5 C 31.1667,13.5 30.8333,13.5 30.5,13.5C 27.8188,11.6922 27.9854,10.3589 31,9.5C 34.0146,10.3589 34.1812,11.6922 31.5,13.5 Z M 12.5,17.5 C 9.57179,16.363 9.23846,15.0296 11.5,13.5C 13.6424,14.4371 13.9757,15.7704 12.5,17.5 Z M 7.5,16.5 C 11.0952,17.9051 11.2619,19.5717 8,21.5C 7.16667,20.6667 6.33333,19.8333 5.5,19C 6.38053,18.2917 7.0472,17.4584 7.5,16.5 Z"/></g>
<g><path style="opacity:0.046" fill="#585858" d="M 63.5,2.5 C 64.7079,3.23411 66.0413,3.56745 67.5,3.5C 67.5,3.83333 67.5,4.16667 67.5,4.5C 67.5,5.16667 67.5,5.83333 67.5,6.5C 63.2852,5.55247 62.7852,6.55247 66,9.5C 66.3826,8.94404 66.8826,8.61071 67.5,8.5C 67.5,9.16667 67.5,9.83333 67.5,10.5C 67.5,11.1667 67.5,11.8333 67.5,12.5C 67.5,12.8333 67.5,13.1667 67.5,13.5C 65.8998,12.488 64.5665,12.988 63.5,15C 64.3805,15.7083 65.0472,16.5416 65.5,17.5C 64.8333,17.5 64.5,17.8333 64.5,18.5C 63.5416,18.0472 62.7083,17.3805 62,16.5C 61.1667,17.3333 60.3333,18.1667 59.5,19C 60.3333,19.8333 61.1667,20.6667 62,21.5C 62.7083,20.6195 63.5416,19.9528 64.5,19.5C 65.1667,19.5 65.5,19.8333 65.5,20.5C 63.1638,22.0728 63.1638,23.4061 65.5,24.5C 65.5674,25.9587 65.2341,27.2921 64.5,28.5C 63.0462,30.2633 63.3796,31.5967 65.5,32.5C 65.5,33.8333 65.5,35.1667 65.5,36.5C 63.5188,37.1054 63.1854,38.1054 64.5,39.5C 64.5,40.1667 64.5,40.8333 64.5,41.5C 63.5416,41.0472 62.7083,40.3805 62,39.5C 61.1667,40.3333 60.3333,41.1667 59.5,42C 60.3333,42.8333 61.1667,43.6667 62,44.5C 62.7083,43.6195 63.5416,42.9528 64.5,42.5C 65.1667,42.5 65.5,42.8333 65.5,43.5C 63.8624,44.7046 63.5291,46.0379 64.5,47.5C 64.5,48.1667 64.5,48.8333 64.5,49.5C 63.5416,49.0472 62.7083,48.3805 62,47.5C 61.2917,48.3805 60.4584,49.0472 59.5,49.5C 59.1667,48.8333 58.8333,48.1667 58.5,47.5C 61.1667,46.5 61.1667,45.5 58.5,44.5C 58.5674,43.0413 58.2341,41.7079 57.5,40.5C 60.4689,39.332 60.8022,37.9987 58.5,36.5C 58.5,35.8333 58.1667,35.5 57.5,35.5C 56.8333,35.5 56.1667,35.5 55.5,35.5C 55.8333,34.8333 56.1667,34.1667 56.5,33.5C 57.5,34.8333 58.5,34.8333 59.5,33.5C 59.5,32.8333 59.5,32.1667 59.5,31.5C 60.8333,31.1667 60.8333,30.8333 59.5,30.5C 58.5,27.8333 57.5,27.8333 56.5,30.5C 56.1667,31.1667 55.8333,31.8333 55.5,32.5C 54.391,32.5569 53.391,32.8902 52.5,33.5C 52.5,32.8333 52.5,32.1667 52.5,31.5C 52.5,30.1667 51.8333,29.5 50.5,29.5C 50.8333,28.8333 51.1667,28.1667 51.5,27.5C 51.8333,27.5 52.1667,27.5 52.5,27.5C 53.5426,29.8519 54.8759,30.0185 56.5,28C 55.944,27.6174 55.6107,27.1174 55.5,26.5C 56.8333,26.1667 56.8333,25.8333 55.5,25.5C 55.1667,25.5 54.8333,25.5 54.5,25.5C 54.1667,24.1667 53.8333,24.1667 53.5,25.5C 52.8333,25.5 52.5,25.8333 52.5,26.5C 52.1667,26.5 51.8333,26.5 51.5,26.5C 50.8333,26.5 50.5,26.1667 50.5,25.5C 50.5,25.1667 50.5,24.8333 50.5,24.5C 52.1765,23.8166 52.8432,22.4832 52.5,20.5C 50.602,21.0965 48.9354,21.0965 47.5,20.5C 48.8333,19.5 48.8333,18.5 47.5,17.5C 47.2671,15.9382 46.6005,14.6049 45.5,13.5C 44.8333,13.5 44.1667,13.5 43.5,13.5C 42.8333,12.1667 42.1667,12.1667 41.5,13.5C 40.8333,13.5 40.1667,13.5 39.5,13.5C 39.8333,12.8333 40.1667,12.1667 40.5,11.5C 41.5,11.1667 42.1667,10.5 42.5,9.5C 44.6204,8.59665 44.9538,7.26332 43.5,5.5C 43.5,4.83333 43.5,4.16667 43.5,3.5C 43.8333,3.5 44.1667,3.5 44.5,3.5C 45.8333,6.16667 47.1667,6.16667 48.5,3.5C 49.3382,3.84171 49.6716,4.50838 49.5,5.5C 48.0243,7.22955 48.3576,8.56289 50.5,9.5C 53.1402,8.12696 53.1402,6.79363 50.5,5.5C 50.8417,4.66175 51.5084,4.32842 52.5,4.5C 54.2633,5.95378 55.5967,5.62045 56.5,3.5C 57.3382,3.84171 57.6716,4.50838 57.5,5.5C 56.0651,6.9848 56.2317,8.31814 58,9.5C 59.7683,8.31814 59.9349,6.9848 58.5,5.5C 58.3284,4.50838 58.6618,3.84171 59.5,3.5C 61.5635,6.45285 62.8969,6.11952 63.5,2.5 Z M 49.5,5.5 C 49.8333,5.5 50.1667,5.5 50.5,5.5C 53.1402,6.79363 53.1402,8.12696 50.5,9.5C 48.3576,8.56289 48.0243,7.22955 49.5,5.5 Z M 57.5,5.5 C 57.8333,5.5 58.1667,5.5 58.5,5.5C 59.9349,6.9848 59.7683,8.31814 58,9.5C 56.2317,8.31814 56.0651,6.9848 57.5,5.5 Z M 45.5,13.5 C 44.0243,11.7704 44.3576,10.4371 46.5,9.5C 49.1939,11.4635 48.8606,12.7968 45.5,13.5 Z M 53.5,9.5 C 57.3368,10.203 57.5034,11.5364 54,13.5C 52.2317,12.3181 52.0651,10.9848 53.5,9.5 Z M 60.5,9.5 C 63.5688,9.96296 64.0688,11.2963 62,13.5C 59.988,12.4335 59.488,11.1002 60.5,9.5 Z M 57.5,12.5 C 61.0952,13.9051 61.2619,15.5717 58,17.5C 57.1667,16.6667 56.3333,15.8333 55.5,15C 56.3805,14.2917 57.0472,13.4584 57.5,12.5 Z M 49.5,13.5 C 53.3368,14.203 53.5034,15.5364 50,17.5C 48.2317,16.3181 48.0651,14.9848 49.5,13.5 Z M 52.5,20.5 C 52.3089,16.5512 53.6422,16.0512 56.5,19C 55.4335,21.012 54.1002,21.512 52.5,20.5 Z M 57.5,20.5 C 61.0952,21.9051 61.2619,23.5717 58,25.5C 57.1667,24.6667 56.3333,23.8333 55.5,23C 56.3805,22.2917 57.0472,21.4584 57.5,20.5 Z M 61.5,24.5 C 64.1402,25.7936 64.1402,27.127 61.5,28.5C 59.2064,27.3746 59.2064,26.0412 61.5,24.5 Z M 59.5,30.5 C 58.5,30.5 57.5,30.5 56.5,30.5C 57.5,27.8333 58.5,27.8333 59.5,30.5 Z M 59.5,33.5 C 63.0918,32.2573 63.9252,33.2573 62,36.5C 60.955,35.6266 60.1217,34.6266 59.5,33.5 Z"/></g>
<g><path style="opacity:0.012" fill="#b6b6b6" d="M 67.5,4.5 C 68.1667,4.83333 68.8333,5.16667 69.5,5.5C 69.5,6.83333 69.5,8.16667 69.5,9.5C 68.8333,9.83333 68.1667,10.1667 67.5,10.5C 67.5,9.83333 67.5,9.16667 67.5,8.5C 67.5,7.83333 67.5,7.16667 67.5,6.5C 67.5,5.83333 67.5,5.16667 67.5,4.5 Z"/></g>
<g><path style="opacity:0.035" fill="#8b8a8a" d="M 3.5,1.5 C 3.5,2.83333 3.5,4.16667 3.5,5.5C 3.08247,6.22158 2.4158,6.72158 1.5,7C 2.38053,7.7083 3.0472,8.54163 3.5,9.5C 3.55688,10.609 3.89022,11.609 4.5,12.5C 1.17965,13.7613 0.846316,15.428 3.5,17.5C 2.83333,17.5 2.16667,17.5 1.5,17.5C 0.833333,17.1667 0.166667,16.8333 -0.5,16.5C -0.5,15.5 -0.5,14.5 -0.5,13.5C 3.5,11.8333 3.5,10.1667 -0.5,8.5C -0.5,7.83333 -0.5,7.16667 -0.5,6.5C 2.79899,5.09851 3.13232,3.26518 0.5,1C 1.57683,0.530417 2.57683,0.697084 3.5,1.5 Z"/></g>
<g><path style="opacity:0.945" fill="#476195" d="M 24.5,15.5 C 31.1667,14.1667 37.8333,14.1667 44.5,15.5C 37.8333,16.8333 31.1667,16.8333 24.5,15.5 Z"/></g>
<g><path style="opacity:0.639" fill="#333d62" d="M 12.5,17.5 C 13.5,17.5 14.5,17.5 15.5,17.5C 15.5,18.1667 15.8333,18.5 16.5,18.5C 16.5,19.1667 16.5,19.8333 16.5,20.5C 16.1667,20.5 15.8333,20.5 15.5,20.5C 14.8333,20.8333 14.1667,21.1667 13.5,21.5C 12.8333,21.5 12.5,21.1667 12.5,20.5C 11.1667,19.5 11.1667,18.5 12.5,17.5 Z"/></g>
<g><path style="opacity:0.012" fill="#8e8e8d" d="M 67.5,12.5 C 68.1667,12.8333 68.8333,13.1667 69.5,13.5C 69.5,14.8333 69.5,16.1667 69.5,17.5C 66.8333,18.5 66.8333,19.5 69.5,20.5C 69.5,21.8333 69.5,23.1667 69.5,24.5C 66.8333,25.8333 66.8333,27.1667 69.5,28.5C 69.5,29.8333 69.5,31.1667 69.5,32.5C 66.8333,33.8333 66.8333,35.1667 69.5,36.5C 69.5,37.8333 69.5,39.1667 69.5,40.5C 66.8333,41.5 66.8333,42.5 69.5,43.5C 69.5,44.8333 69.5,46.1667 69.5,47.5C 68.8333,47.5 68.5,47.8333 68.5,48.5C 67.8333,48.5 67.1667,48.5 66.5,48.5C 69.1537,46.428 68.8204,44.7613 65.5,43.5C 65.5,42.8333 65.1667,42.5 64.5,42.5C 64.5,42.1667 64.5,41.8333 64.5,41.5C 64.5,40.8333 64.5,40.1667 64.5,39.5C 65.8671,40.8526 66.8671,40.5193 67.5,38.5C 67.1445,37.4777 66.4778,36.811 65.5,36.5C 65.5,35.1667 65.5,33.8333 65.5,32.5C 68.2178,30.5774 67.8845,29.244 64.5,28.5C 65.2341,27.2921 65.5674,25.9587 65.5,24.5C 68.1667,23.1667 68.1667,21.8333 65.5,20.5C 65.5,19.8333 65.1667,19.5 64.5,19.5C 64.5,19.1667 64.5,18.8333 64.5,18.5C 64.5,17.8333 64.8333,17.5 65.5,17.5C 67.7619,16.6551 68.4286,15.3217 67.5,13.5C 67.5,13.1667 67.5,12.8333 67.5,12.5 Z"/></g>
<g><path style="opacity:1" fill="#99b4d9" d="M 22.5,15.5 C 23.1667,15.5 23.8333,15.5 24.5,15.5C 31.1667,16.8333 37.8333,16.8333 44.5,15.5C 46.2798,16.9899 46.9465,18.9899 46.5,21.5C 44.9557,21.7031 43.6223,22.3698 42.5,23.5C 41.8165,23.1373 41.1499,22.8039 40.5,22.5C 40.1961,21.8501 39.8627,21.1835 39.5,20.5C 36.1667,19.1667 32.8333,19.1667 29.5,20.5C 28.3881,21.2652 27.7214,22.2652 27.5,23.5C 25.8333,22.8333 24.1667,22.1667 22.5,21.5C 22.5,19.5 22.5,17.5 22.5,15.5 Z"/></g>
<g><path style="opacity:1" fill="#68799e" d="M 40.5,22.5 C 36.2984,22.1832 32.2984,22.5166 28.5,23.5C 28.1667,23.5 27.8333,23.5 27.5,23.5C 27.7214,22.2652 28.3881,21.2652 29.5,20.5C 32.8333,19.1667 36.1667,19.1667 39.5,20.5C 39.8627,21.1835 40.1961,21.8501 40.5,22.5 Z"/></g>
<g><path style="opacity:1" fill="#acb1c1" d="M 28.5,23.5 C 32.2984,22.5166 36.2984,22.1832 40.5,22.5C 40.8168,26.7016 40.4834,30.7016 39.5,34.5C 39.631,33.7611 39.4643,33.0944 39,32.5C 37.836,32.1654 36.5026,32.1654 35,32.5C 34.7508,31.376 34.2508,30.376 33.5,29.5C 32.549,30.3256 31.549,30.4922 30.5,30C 29.1667,28 29.1667,26 30.5,24C 29.9056,23.5357 29.2389,23.369 28.5,23.5 Z"/></g>
<g><path style="opacity:1" fill="#61769f" d="M 22.5,21.5 C 24.1667,22.1667 25.8333,22.8333 27.5,23.5C 27.8128,27.0419 27.4794,30.3752 26.5,33.5C 25.1667,33.5 23.8333,33.5 22.5,33.5C 22.5,33.1667 22.5,32.8333 22.5,32.5C 27.5028,30.5744 27.5028,29.2411 22.5,28.5C 22.5,28.1667 22.5,27.8333 22.5,27.5C 23.8333,27.5 25.1667,27.5 26.5,27.5C 26.5123,24.858 25.179,23.5246 22.5,23.5C 22.5,22.8333 22.5,22.1667 22.5,21.5 Z"/></g>
<g><path style="opacity:0.032" fill="#585857" d="M 49.5,24.5 C 49.5,24.8333 49.5,25.1667 49.5,25.5C 47.4599,26.4751 47.1266,25.8084 48.5,23.5C 49.1067,23.6236 49.44,23.9569 49.5,24.5 Z"/></g>
<g><path style="opacity:0.827" fill="#2f3f6d" d="M 9.5,22.5 C 10.791,22.2627 11.791,22.596 12.5,23.5C 12.3678,26.0069 11.3678,26.6736 9.5,25.5C 9.5,24.5 9.5,23.5 9.5,22.5 Z"/></g>
<g><path style="opacity:1" fill="#98b3d8" d="M 22.5,23.5 C 25.179,23.5246 26.5123,24.858 26.5,27.5C 25.1667,27.5 23.8333,27.5 22.5,27.5C 22.5,26.1667 22.5,24.8333 22.5,23.5 Z"/></g>
<g><path style="opacity:0.048" fill="#585858" d="M 15.5,20.5 C 15.5,20.8333 15.5,21.1667 15.5,21.5C 15.5569,22.609 15.8902,23.609 16.5,24.5C 13.9931,24.6322 13.3264,25.6322 14.5,27.5C 13.391,27.5569 12.391,27.8902 11.5,28.5C 8.85982,29.7936 8.85982,31.127 11.5,32.5C 12.2975,32.0431 12.6309,31.3764 12.5,30.5C 14.3678,31.6736 15.3678,31.0069 15.5,28.5C 16.1667,28.5 16.8333,28.5 17.5,28.5C 17.5,28.8333 17.5,29.1667 17.5,29.5C 17.8333,30.8333 18.1667,30.8333 18.5,29.5C 18.8333,29.5 19.1667,29.5 19.5,29.5C 19.5,30.1667 19.5,30.8333 19.5,31.5C 18.0413,31.4326 16.7079,31.7659 15.5,32.5C 13.6182,33.221 13.2848,34.221 14.5,35.5C 14.5,36.1667 14.1667,36.5 13.5,36.5C 9.37188,36.5755 8.70521,37.9088 11.5,40.5C 11.5,41.1667 11.1667,41.5 10.5,41.5C 9.54163,41.0472 8.7083,40.3805 8,39.5C 5.05118,42.3578 5.55118,43.6911 9.5,43.5C 9.95302,45.5652 10.953,47.2318 12.5,48.5C 12.7118,50.3841 13.7118,51.7174 15.5,52.5C 16.9185,51.9953 17.5852,50.9953 17.5,49.5C 18.1667,49.1667 18.8333,48.8333 19.5,48.5C 19.8333,48.5 20.1667,48.5 20.5,48.5C 20.5,49.5 20.5,50.5 20.5,51.5C 16.5,52.8333 16.5,54.1667 20.5,55.5C 20.8333,55.5 21.1667,55.5 21.5,55.5C 20.0813,56.4511 18.4147,56.7845 16.5,56.5C 15.1507,55.3559 14.8174,55.3559 15.5,56.5C 14.6522,57.625 13.6522,57.625 12.5,56.5C 13.9532,51.7691 12.9532,50.9358 9.5,54C 10.3805,54.7083 11.0472,55.5416 11.5,56.5C 11.3893,57.1174 11.056,57.6174 10.5,58C 11.7932,58.49 13.1266,58.6567 14.5,58.5C 15.1667,59.8333 15.8333,59.8333 16.5,58.5C 17.1667,58.5 17.8333,58.5 18.5,58.5C 18.5,58.8333 18.5,59.1667 18.5,59.5C 16.9976,61.8293 17.6643,63.1627 20.5,63.5C 20.5,63.8333 20.5,64.1667 20.5,64.5C 19.609,65.1098 18.609,65.4431 17.5,65.5C 16.1667,62.8333 14.8333,62.8333 13.5,65.5C 12.1667,65.5 10.8333,65.5 9.5,65.5C 8.59665,63.3796 7.26332,63.0462 5.5,64.5C 4.83333,64.5 4.5,64.1667 4.5,63.5C 5.95378,61.7367 5.62045,60.4033 3.5,59.5C 3.5,58.1667 3.5,56.8333 3.5,55.5C 7.26545,54.5249 7.26545,53.1916 3.5,51.5C 3.5,50.5 3.5,49.5 3.5,48.5C 7.5,46.8333 7.5,45.1667 3.5,43.5C 3.5,42.5 3.5,41.5 3.5,40.5C 6.46888,39.332 6.80221,37.9987 4.5,36.5C 4.5,35.1667 4.5,33.8333 4.5,32.5C 5.83333,31.1667 5.83333,29.8333 4.5,28.5C 4.5,27.5 4.5,26.5 4.5,25.5C 4.5,24.8333 4.83333,24.5 5.5,24.5C 6.16667,24.5 6.5,24.8333 6.5,25.5C 5.14737,26.8671 5.4807,27.8671 7.5,28.5C 8.91851,27.9953 9.58517,26.9953 9.5,25.5C 11.3678,26.6736 12.3678,26.0069 12.5,23.5C 13.3382,23.1583 13.6716,22.4916 13.5,21.5C 14.1667,21.1667 14.8333,20.8333 15.5,20.5 Z M 9.5,25.5 C 9.58517,26.9953 8.91851,27.9953 7.5,28.5C 5.4807,27.8671 5.14737,26.8671 6.5,25.5C 7.5,24.1667 8.5,24.1667 9.5,25.5 Z M 11.5,28.5 C 11.3284,29.4916 11.6618,30.1583 12.5,30.5C 12.6309,31.3764 12.2975,32.0431 11.5,32.5C 8.85982,31.127 8.85982,29.7936 11.5,28.5 Z M 6.5,32.5 C 9.56879,32.963 10.0688,34.2963 8,36.5C 5.98801,35.4335 5.48801,34.1002 6.5,32.5 Z M 7.5,47.5 C 11.0952,48.9051 11.2619,50.5717 8,52.5C 7.16667,51.6667 6.33333,50.8333 5.5,50C 6.38053,49.2917 7.0472,48.4584 7.5,47.5 Z M 12.5,56.5 C 12.1667,56.5 11.8333,56.5 11.5,56.5C 11.0472,55.5416 10.3805,54.7083 9.5,54C 12.9532,50.9358 13.9532,51.7691 12.5,56.5 Z M 7.5,55.5 C 9.85187,56.5426 10.0185,57.8759 8,59.5C 7.24956,58.8742 6.41623,58.3742 5.5,58C 6.38053,57.2917 7.0472,56.4584 7.5,55.5 Z M 10.5,59.5 C 13.5688,59.963 14.0688,61.2963 12,63.5C 9.98801,62.4335 9.48801,61.1002 10.5,59.5 Z"/></g>
<g><path style="opacity:1" fill="#8aa3c9" d="M 46.5,23.5 C 46.5,24.8333 46.5,26.1667 46.5,27.5C 44.8008,27.6602 43.1341,27.4935 41.5,27C 42.489,24.8415 44.1556,23.6748 46.5,23.5 Z"/></g>
<g><path style="opacity:1" fill="#848ca6" d="M 31.5,23.5 C 33.604,23.2011 35.604,23.5344 37.5,24.5C 36.2713,25.2811 34.938,25.7811 33.5,26C 34.938,26.2189 36.2713,26.7189 37.5,27.5C 35.1667,28.8333 32.8333,28.8333 30.5,27.5C 31.2458,26.2638 31.5792,24.9305 31.5,23.5 Z"/></g>
<g><path style="opacity:0.565" fill="#2e365c" d="M 14.5,27.5 C 15.1667,27.5 15.5,27.8333 15.5,28.5C 15.3678,31.0069 14.3678,31.6736 12.5,30.5C 11.6618,30.1583 11.3284,29.4916 11.5,28.5C 12.391,27.8902 13.391,27.5569 14.5,27.5 Z"/></g>
<g><path style="opacity:1" fill="#888fa8" d="M 27.5,23.5 C 27.8333,23.5 28.1667,23.5 28.5,23.5C 29.2389,23.369 29.9056,23.5357 30.5,24C 29.1667,26 29.1667,28 30.5,30C 31.549,30.4922 32.549,30.3256 33.5,29.5C 34.2508,30.376 34.7508,31.376 35,32.5C 36.5026,32.1654 37.836,32.1654 39,32.5C 39.4643,33.0944 39.631,33.7611 39.5,34.5C 37.1667,34.5 34.8333,34.5 32.5,34.5C 32.719,33.325 32.3857,32.325 31.5,31.5C 30.6114,33.007 29.6114,34.3403 28.5,35.5C 27.5,35.1667 26.8333,34.5 26.5,33.5C 27.4794,30.3752 27.8128,27.0419 27.5,23.5 Z"/></g>
<g><path style="opacity:0.259" fill="#24315c" d="M 53.5,25.5 C 53.8333,25.5 54.1667,25.5 54.5,25.5C 54.8333,25.5 55.1667,25.5 55.5,25.5C 55.5,25.8333 55.5,26.1667 55.5,26.5C 55.6107,27.1174 55.944,27.6174 56.5,28C 54.8759,30.0185 53.5426,29.8519 52.5,27.5C 52.5,27.1667 52.5,26.8333 52.5,26.5C 53.1667,26.5 53.5,26.1667 53.5,25.5 Z"/></g>
<g><path style="opacity:1" fill="#98b2d7" d="M 22.5,28.5 C 27.5028,29.2411 27.5028,30.5744 22.5,32.5C 22.5,31.1667 22.5,29.8333 22.5,28.5 Z"/></g>
<g><path style="opacity:0.733" fill="#313d66" d="M 23.5,13.5 C 23.8333,13.5 24.1667,13.5 24.5,13.5C 25.1667,13.5 25.8333,13.5 26.5,13.5C 26.8333,13.5 27.1667,13.5 27.5,13.5C 28.5,13.5 29.5,13.5 30.5,13.5C 30.8333,13.5 31.1667,13.5 31.5,13.5C 32.5,13.5 33.5,13.5 34.5,13.5C 34.8333,13.5 35.1667,13.5 35.5,13.5C 36.1667,13.5 36.8333,13.5 37.5,13.5C 38.1667,13.5 38.8333,13.5 39.5,13.5C 40.1667,13.5 40.8333,13.5 41.5,13.5C 42.1667,13.5 42.8333,13.5 43.5,13.5C 44.1667,13.5 44.8333,13.5 45.5,13.5C 46.6005,14.6049 47.2671,15.9382 47.5,17.5C 47.5,18.5 47.5,19.5 47.5,20.5C 48.9354,21.0965 50.602,21.0965 52.5,20.5C 52.8432,22.4832 52.1765,23.8166 50.5,24.5C 50.1667,24.5 49.8333,24.5 49.5,24.5C 49.44,23.9569 49.1067,23.6236 48.5,23.5C 47.1266,25.8084 47.4599,26.4751 49.5,25.5C 49.8333,25.5 50.1667,25.5 50.5,25.5C 50.5,26.1667 50.8333,26.5 51.5,26.5C 51.5,26.8333 51.5,27.1667 51.5,27.5C 51.1667,28.1667 50.8333,28.8333 50.5,29.5C 49.8333,29.5 49.5,29.8333 49.5,30.5C 50.609,30.5569 51.609,30.8902 52.5,31.5C 52.5,32.1667 52.5,32.8333 52.5,33.5C 52.6322,36.0069 53.6322,36.6736 55.5,35.5C 56.1667,35.5 56.8333,35.5 57.5,35.5C 58.1667,35.5 58.5,35.8333 58.5,36.5C 58.1667,37.8333 57.8333,39.1667 57.5,40.5C 58.2341,41.7079 58.5674,43.0413 58.5,44.5C 57.1667,45.5 57.1667,46.5 58.5,47.5C 58.8333,48.1667 59.1667,48.8333 59.5,49.5C 58.8333,50.1667 58.1667,50.8333 57.5,51.5C 56.7929,48.2139 56.4595,44.8806 56.5,41.5C 53.1667,41.5 51.5,39.8333 51.5,36.5C 49.6096,36.2965 48.1096,36.9632 47,38.5C 46.5065,36.8659 46.3398,35.1992 46.5,33.5C 46.5,31.5 46.5,29.5 46.5,27.5C 46.5,26.1667 46.5,24.8333 46.5,23.5C 46.5,22.8333 46.5,22.1667 46.5,21.5C 46.9465,18.9899 46.2798,16.9899 44.5,15.5C 37.8333,14.1667 31.1667,14.1667 24.5,15.5C 23.8333,15.5 23.1667,15.5 22.5,15.5C 22.8333,14.8333 23.1667,14.1667 23.5,13.5 Z M 49.5,30.5 C 48.9232,31.7733 48.2565,31.7733 47.5,30.5C 47.9698,29.537 48.6365,29.537 49.5,30.5 Z"/></g>
<g><path style="opacity:0.157" fill="#2e3861" d="M 56.5,30.5 C 57.5,30.5 58.5,30.5 59.5,30.5C 59.5,30.8333 59.5,31.1667 59.5,31.5C 59.5,32.1667 59.5,32.8333 59.5,33.5C 58.5,34.8333 57.5,34.8333 56.5,33.5C 55.8333,33.5 55.5,33.1667 55.5,32.5C 55.8333,31.8333 56.1667,31.1667 56.5,30.5 Z"/></g>
<g><path style="opacity:1" fill="#6d7ca0" d="M 46.5,21.5 C 46.5,22.1667 46.5,22.8333 46.5,23.5C 44.1556,23.6748 42.489,24.8415 41.5,27C 43.1341,27.4935 44.8008,27.6602 46.5,27.5C 46.5,29.5 46.5,31.5 46.5,33.5C 46.1667,33.5 45.8333,33.5 45.5,33.5C 42.4462,33.7045 39.9462,35.0378 38,37.5C 35.3463,36.1913 32.6797,36.1913 30,37.5C 29.2828,36.9558 28.7828,36.2891 28.5,35.5C 29.6114,34.3403 30.6114,33.007 31.5,31.5C 32.3857,32.325 32.719,33.325 32.5,34.5C 34.8333,34.5 37.1667,34.5 39.5,34.5C 40.4834,30.7016 40.8168,26.7016 40.5,22.5C 41.1499,22.8039 41.8165,23.1373 42.5,23.5C 43.6223,22.3698 44.9557,21.7031 46.5,21.5 Z"/></g>
<g><path style="opacity:1" fill="#9bb6db" d="M 42.5,28.5 C 43.5,28.5 44.5,28.5 45.5,28.5C 45.3536,33.4211 44.3536,33.4211 42.5,28.5 Z"/></g>
<g><path style="opacity:0.012" fill="#5e5d5b" d="M 16.5,34.5 C 17.4728,35.7914 18.4728,35.7914 19.5,34.5C 20.2975,34.9569 20.6309,35.6236 20.5,36.5C 19.391,36.5569 18.391,36.8902 17.5,37.5C 17.1667,36.8333 16.8333,36.1667 16.5,35.5C 16.5,35.1667 16.5,34.8333 16.5,34.5 Z"/></g>
<g><path style="opacity:1" fill="#7896c7" d="M 45.5,33.5 C 45.8333,33.5 46.1667,33.5 46.5,33.5C 46.3398,35.1992 46.5065,36.8659 47,38.5C 48.1096,36.9632 49.6096,36.2965 51.5,36.5C 51.5,39.8333 53.1667,41.5 56.5,41.5C 56.4595,44.8806 56.7929,48.2139 57.5,51.5C 54.1667,51.5 52.5,53.1667 52.5,56.5C 51.5,56.5 50.5,56.5 49.5,56.5C 48.1938,55.5326 47.5271,54.1993 47.5,52.5C 53.2285,50.0234 53.8951,46.5234 49.5,42C 48.552,41.5172 47.552,41.3505 46.5,41.5C 46.5,45.1667 46.5,48.8333 46.5,52.5C 46.1667,52.5 45.8333,52.5 45.5,52.5C 45.7845,50.5853 45.4511,48.9187 44.5,47.5C 44.5,45.5 44.5,43.5 44.5,41.5C 45.4731,39.0521 45.8064,36.3854 45.5,33.5 Z M 50.5,48.5 C 49.7777,47.4489 48.7777,46.7822 47.5,46.5C 48.9914,43.7704 50.3248,43.937 51.5,47C 50.944,47.3826 50.6107,47.8826 50.5,48.5 Z"/></g>
<g><path style="opacity:0.565" fill="#2d3964" d="M 21.5,15.5 C 21.8333,15.5 22.1667,15.5 22.5,15.5C 22.5,17.5 22.5,19.5 22.5,21.5C 22.5,22.1667 22.5,22.8333 22.5,23.5C 22.5,24.8333 22.5,26.1667 22.5,27.5C 22.5,27.8333 22.5,28.1667 22.5,28.5C 22.5,29.8333 22.5,31.1667 22.5,32.5C 22.5,32.8333 22.5,33.1667 22.5,33.5C 21.5084,40.6476 21.175,47.9809 21.5,55.5C 21.1667,55.5 20.8333,55.5 20.5,55.5C 20.5,54.1667 20.5,52.8333 20.5,51.5C 20.5,50.5 20.5,49.5 20.5,48.5C 20.1667,47.1667 19.8333,47.1667 19.5,48.5C 18.8333,48.8333 18.1667,49.1667 17.5,49.5C 16.5263,47.9147 15.0263,46.9147 13,46.5C 12.5357,47.0944 12.369,47.7611 12.5,48.5C 10.953,47.2318 9.95302,45.5652 9.5,43.5C 9.83333,42.8333 10.1667,42.1667 10.5,41.5C 11.1667,41.5 11.5,41.1667 11.5,40.5C 12.1667,39.1667 12.8333,37.8333 13.5,36.5C 14.1667,36.5 14.5,36.1667 14.5,35.5C 15.1667,35.5 15.8333,35.5 16.5,35.5C 16.8333,36.1667 17.1667,36.8333 17.5,37.5C 17.5,37.8333 17.5,38.1667 17.5,38.5C 20.0443,41.3065 21.0443,40.6399 20.5,36.5C 20.6309,35.6236 20.2975,34.9569 19.5,34.5C 18.4728,35.7914 17.4728,35.7914 16.5,34.5C 15.6618,34.1583 15.3284,33.4916 15.5,32.5C 16.7079,31.7659 18.0413,31.4326 19.5,31.5C 20.8333,30.8333 20.8333,30.1667 19.5,29.5C 19.1667,29.5 18.8333,29.5 18.5,29.5C 18.1667,29.5 17.8333,29.5 17.5,29.5C 17.5,29.1667 17.5,28.8333 17.5,28.5C 17.5674,27.0413 17.2341,25.7079 16.5,24.5C 15.8902,23.609 15.5569,22.609 15.5,21.5C 16.1667,21.5 16.5,21.1667 16.5,20.5C 16.8333,20.5 17.1667,20.5 17.5,20.5C 18.1667,20.5 18.8333,20.5 19.5,20.5C 19.8333,21.8333 20.1667,21.8333 20.5,20.5C 20.5,19.5 20.5,18.5 20.5,17.5C 20.8333,16.8333 21.1667,16.1667 21.5,15.5 Z M 20.5,36.5 C 21.0443,40.6399 20.0443,41.3065 17.5,38.5C 17.5,38.1667 17.5,37.8333 17.5,37.5C 18.391,36.8902 19.391,36.5569 20.5,36.5 Z M 19.5,23.5 C 20.7733,24.0768 20.7733,24.7435 19.5,25.5C 18.537,25.0302 18.537,24.3635 19.5,23.5 Z"/></g>
<g><path style="opacity:1" fill="#5c75a5" d="M 17.5,38.5 C 18.3503,40.5851 18.6837,42.5851 18.5,44.5C 16.9255,45.6309 15.2588,45.7975 13.5,45C 12.4024,43.0268 12.5691,40.8602 14,38.5C 15.1455,37.3157 16.3121,37.3157 17.5,38.5 Z"/></g>
<g><path style="opacity:1" fill="#707c9c" d="M 44.5,41.5 C 44.5,43.5 44.5,45.5 44.5,47.5C 42.8333,47.5 41.1667,47.5 39.5,47.5C 39.5,45.5 39.5,43.5 39.5,41.5C 41.1667,41.5 42.8333,41.5 44.5,41.5 Z"/></g>
<g><path style="opacity:1" fill="#f2f3f5" d="M 40.5,42.5 C 41.5,42.5 42.5,42.5 43.5,42.5C 43.5,43.8333 43.5,45.1667 43.5,46.5C 42.5,46.5 41.5,46.5 40.5,46.5C 40.5,45.1667 40.5,43.8333 40.5,42.5 Z"/></g>
<g><path style="opacity:1" fill="#5a71a2" d="M 17.5,49.5 C 15.6017,50.7345 13.935,50.4011 12.5,48.5C 12.369,47.7611 12.5357,47.0944 13,46.5C 15.0263,46.9147 16.5263,47.9147 17.5,49.5 Z"/></g>
<g><path style="opacity:1" fill="#9ab5d9" d="M 22.5,33.5 C 23.8333,33.5 25.1667,33.5 26.5,33.5C 26.8333,34.5 27.5,35.1667 28.5,35.5C 28.7828,36.2891 29.2828,36.9558 30,37.5C 32.6797,36.1913 35.3463,36.1913 38,37.5C 39.9462,35.0378 42.4462,33.7045 45.5,33.5C 45.8064,36.3854 45.4731,39.0521 44.5,41.5C 42.8333,41.5 41.1667,41.5 39.5,41.5C 39.5,43.5 39.5,45.5 39.5,47.5C 41.1667,47.5 42.8333,47.5 44.5,47.5C 45.4511,48.9187 45.7845,50.5853 45.5,52.5C 38.0182,53.492 30.3516,53.8254 22.5,53.5C 22.5,46.8333 22.5,40.1667 22.5,33.5 Z"/></g>
<g><path style="opacity:1" fill="#69799d" d="M 23.5,41.5 C 25.5,41.5 27.5,41.5 29.5,41.5C 29.5,43.5 29.5,45.5 29.5,47.5C 27.5,47.5 25.5,47.5 23.5,47.5C 23.5,45.5 23.5,43.5 23.5,41.5 Z"/></g>
<g><path style="opacity:1" fill="#6a7da3" d="M 26.5,38.5 C 31.8746,38.1718 37.2079,38.5052 42.5,39.5C 40.2338,40.3142 37.9005,40.8142 35.5,41C 37.25,42.7542 37.9167,44.9208 37.5,47.5C 35.5,47.5 33.5,47.5 31.5,47.5C 31.1601,44.8559 31.8267,42.5225 33.5,40.5C 31.3052,39.2309 29.1385,39.2309 27,40.5C 26.5357,39.9056 26.369,39.2389 26.5,38.5 Z"/></g>
<g><path style="opacity:1" fill="#e4e5ea" d="M 32.5,42.5 C 33.8333,42.5 35.1667,42.5 36.5,42.5C 36.5,43.8333 36.5,45.1667 36.5,46.5C 35.1667,46.5 33.8333,46.5 32.5,46.5C 32.5,45.1667 32.5,43.8333 32.5,42.5 Z"/></g>
<g><path style="opacity:1" fill="#dcdee4" d="M 24.5,42.5 C 25.8333,42.5 27.1667,42.5 28.5,42.5C 28.5,43.8333 28.5,45.1667 28.5,46.5C 27.1667,46.5 25.8333,46.5 24.5,46.5C 24.5,45.1667 24.5,43.8333 24.5,42.5 Z"/></g>
<g><path style="opacity:0.133" fill="#29355f" d="M 12.5,48.5 C 13.935,50.4011 15.6017,50.7345 17.5,49.5C 17.5852,50.9953 16.9185,51.9953 15.5,52.5C 13.7118,51.7174 12.7118,50.3841 12.5,48.5 Z"/></g>
<g><path style="opacity:1" fill="#5a719e" d="M 26.5,48.5 C 31.5111,48.3341 36.5111,48.5007 41.5,49C 41.9574,49.414 42.2907,49.914 42.5,50.5C 37.2079,51.4948 31.8746,51.8282 26.5,51.5C 26.5,50.5 26.5,49.5 26.5,48.5 Z"/></g>
<g><path style="opacity:0.663" fill="#374269" d="M 47.5,52.5 C 47.1667,52.5 46.8333,52.5 46.5,52.5C 46.5,48.8333 46.5,45.1667 46.5,41.5C 47.552,41.3505 48.552,41.5172 49.5,42C 53.8951,46.5234 53.2285,50.0234 47.5,52.5 Z M 50.5,48.5 C 49.7777,47.4489 48.7777,46.7822 47.5,46.5C 48.9914,43.7704 50.3248,43.937 51.5,47C 50.944,47.3826 50.6107,47.8826 50.5,48.5 Z"/></g>
<g><path style="opacity:0.047" fill="#5a5a59" d="M 47.5,46.5 C 48.7777,46.7822 49.7777,47.4489 50.5,48.5C 50.1667,49.5 49.5,50.1667 48.5,50.5C 48.6716,49.5084 48.3382,48.8417 47.5,48.5C 47.5,47.8333 47.5,47.1667 47.5,46.5 Z"/></g>
<g><path style="opacity:0.052" fill="#5e5e5e" d="M 64.5,47.5 C 65.1667,47.8333 65.8333,48.1667 66.5,48.5C 67.1667,48.5 67.8333,48.5 68.5,48.5C 67.1667,49.5 67.1667,50.5 68.5,51.5C 67.8333,51.5 67.5,51.8333 67.5,52.5C 65.8998,51.488 64.5665,51.988 63.5,54C 64.2438,55.0386 65.2438,55.5386 66.5,55.5C 66.5,56.8333 66.5,58.1667 66.5,59.5C 62.9316,60.0617 62.5983,61.395 65.5,63.5C 65.1583,64.3382 64.4916,64.6716 63.5,64.5C 61.7367,63.0462 60.4033,63.3796 59.5,65.5C 58.5,65.5 57.5,65.5 56.5,65.5C 54.5774,62.7822 53.244,63.1155 52.5,66.5C 52.5,67.1667 52.1667,67.5 51.5,67.5C 50.391,67.5569 49.391,67.8902 48.5,68.5C 48.5,67.8333 48.1667,67.5 47.5,67.5C 47.8333,66.8333 48.1667,66.1667 48.5,65.5C 50.1788,65.7148 51.1788,65.0481 51.5,63.5C 53.0024,61.1707 52.3357,59.8373 49.5,59.5C 49.5,59.1667 49.5,58.8333 49.5,58.5C 50.8333,58.5 52.1667,58.5 53.5,58.5C 54.1667,59.8333 54.8333,59.8333 55.5,58.5C 56.8333,57.8333 56.8333,57.1667 55.5,56.5C 55.5,55.8333 55.1667,55.5 54.5,55.5C 54.3284,54.5084 54.6618,53.8417 55.5,53.5C 57.0183,55.6033 58.685,55.77 60.5,54C 59.7562,52.9614 58.7562,52.4614 57.5,52.5C 57.5,52.1667 57.5,51.8333 57.5,51.5C 58.1667,50.8333 58.8333,50.1667 59.5,49.5C 61.1667,53.5 62.8333,53.5 64.5,49.5C 64.5,48.8333 64.5,48.1667 64.5,47.5 Z M 61.5,55.5 C 63.8519,56.5426 64.0185,57.8759 62,59.5C 61.2496,58.8742 60.4162,58.3742 59.5,58C 60.3805,57.2917 61.0472,56.4584 61.5,55.5 Z M 57.5,59.5 C 59.8519,60.5426 60.0185,61.8759 58,63.5C 56.2317,62.3181 56.0651,60.9848 57.5,59.5 Z"/></g>
<g><path style="opacity:1" fill="#486092" d="M 22.5,33.5 C 22.5,40.1667 22.5,46.8333 22.5,53.5C 30.3516,53.8254 38.0182,53.492 45.5,52.5C 45.8333,52.5 46.1667,52.5 46.5,52.5C 46.8333,52.5 47.1667,52.5 47.5,52.5C 47.5271,54.1993 48.1938,55.5326 49.5,56.5C 48.1667,56.5 46.8333,56.5 45.5,56.5C 42.6627,54.5977 39.3293,53.931 35.5,54.5C 35.5,55.5 35.5,56.5 35.5,57.5C 34.8333,57.5 34.1667,57.5 33.5,57.5C 33.1961,56.8501 32.8627,56.1835 32.5,55.5C 29.0202,54.1944 25.6868,54.1944 22.5,55.5C 22.1667,55.5 21.8333,55.5 21.5,55.5C 21.175,47.9809 21.5084,40.6476 22.5,33.5 Z"/></g>
<g><path style="opacity:1" fill="#4e79b7" d="M 33.5,57.5 C 30.1501,57.665 26.8168,57.4983 23.5,57C 22.944,56.6174 22.6107,56.1174 22.5,55.5C 25.6868,54.1944 29.0202,54.1944 32.5,55.5C 32.8627,56.1835 33.1961,56.8501 33.5,57.5 Z"/></g>
<g><path style="opacity:1" fill="#4f7ab9" d="M 45.5,56.5 C 42.272,57.4137 38.9387,57.7471 35.5,57.5C 35.5,56.5 35.5,55.5 35.5,54.5C 39.3293,53.931 42.6627,54.5977 45.5,56.5 Z"/></g>
<g><path style="opacity:0.035" fill="#8b8b8b" d="M 2.5,19.5 C 2.5,20.1667 2.83333,20.5 3.5,20.5C 0.846316,22.572 1.17965,24.2387 4.5,25.5C 4.5,26.5 4.5,27.5 4.5,28.5C 1.83333,29.8333 1.83333,31.1667 4.5,32.5C 4.5,33.8333 4.5,35.1667 4.5,36.5C 0.931603,37.0617 0.598269,38.395 3.5,40.5C 3.5,41.5 3.5,42.5 3.5,43.5C 3.0472,44.4584 2.38053,45.2917 1.5,46C 2.38053,46.7083 3.0472,47.5416 3.5,48.5C 3.5,49.5 3.5,50.5 3.5,51.5C 1.16375,53.0728 1.16375,54.4061 3.5,55.5C 3.5,56.8333 3.5,58.1667 3.5,59.5C 1.14514,60.9582 1.47848,62.2915 4.5,63.5C 4.5,64.1667 4.83333,64.5 5.5,64.5C 6.66801,67.4689 8.00135,67.8022 9.5,65.5C 10.8333,65.5 12.1667,65.5 13.5,65.5C 14.8333,68.1667 16.1667,68.1667 17.5,65.5C 18.609,65.4431 19.609,65.1098 20.5,64.5C 20.5,65.1667 20.8333,65.5 21.5,65.5C 22.5939,67.8362 23.9272,67.8362 25.5,65.5C 26.5,65.5 27.5,65.5 28.5,65.5C 29.4584,65.9528 30.2917,66.6195 31,67.5C 31.7083,66.6195 32.5416,65.9528 33.5,65.5C 34.5,65.5 35.5,65.5 36.5,65.5C 38.605,68.4017 39.9383,68.0684 40.5,64.5C 41.8333,64.5 43.1667,64.5 44.5,64.5C 44.5,65.1667 44.5,65.8333 44.5,66.5C 44.5,67.1667 44.5,67.8333 44.5,68.5C 42.7367,67.0462 41.4033,67.3796 40.5,69.5C 39.5,69.5 38.5,69.5 37.5,69.5C 35.8333,65.5 34.1667,65.5 32.5,69.5C 31.5,69.5 30.5,69.5 29.5,69.5C 27.8333,65.5 26.1667,65.5 24.5,69.5C 23.5,69.5 22.5,69.5 21.5,69.5C 20.1667,66.8333 18.8333,66.8333 17.5,69.5C 16.5,69.5 15.5,69.5 14.5,69.5C 12.8333,65.5 11.1667,65.5 9.5,69.5C 8.5,69.5 7.5,69.5 6.5,69.5C 5.87833,68.3734 5.04499,67.3734 4,66.5C 0.255717,69.2116 -0.244283,68.7116 2.5,65C 1.62656,63.955 0.626561,63.1217 -0.5,62.5C -0.5,61.8333 -0.5,61.1667 -0.5,60.5C 3.5,58.5 3.5,56.5 -0.5,54.5C -0.5,53.8333 -0.5,53.1667 -0.5,52.5C 3.5,50.8333 3.5,49.1667 -0.5,47.5C -0.5,46.5 -0.5,45.5 -0.5,44.5C 3.5,42.8333 3.5,41.1667 -0.5,39.5C -0.5,38.8333 -0.5,38.1667 -0.5,37.5C 3.11391,35.2975 3.11391,33.2975 -0.5,31.5C -0.5,30.8333 -0.5,30.1667 -0.5,29.5C 3.5,27.8333 3.5,26.1667 -0.5,24.5C -0.5,23.5 -0.5,22.5 -0.5,21.5C 0.5,20.8333 1.5,20.1667 2.5,19.5 Z"/></g>
<g><path style="opacity:0.557" fill="#273562" d="M 57.5,51.5 C 57.5,51.8333 57.5,52.1667 57.5,52.5C 57.1583,53.3382 56.4916,53.6716 55.5,53.5C 54.6618,53.8417 54.3284,54.5084 54.5,55.5C 55.1667,55.5 55.5,55.8333 55.5,56.5C 56.8333,57.1667 56.8333,57.8333 55.5,58.5C 54.8333,58.5 54.1667,58.5 53.5,58.5C 52.1667,58.5 50.8333,58.5 49.5,58.5C 48.8333,58.5 48.1667,58.5 47.5,58.5C 46.8333,58.5 46.1667,58.5 45.5,58.5C 43.5,58.5 41.5,58.5 39.5,58.5C 38.8333,58.5 38.1667,58.5 37.5,58.5C 36.8333,58.5 36.1667,58.5 35.5,58.5C 35.1667,58.5 34.8333,58.5 34.5,58.5C 33.8333,58.5 33.1667,58.5 32.5,58.5C 31.5,58.5 30.5,58.5 29.5,58.5C 27.8333,58.5 26.1667,58.5 24.5,58.5C 23.8333,58.5 23.1667,58.5 22.5,58.5C 21.1667,58.5 19.8333,58.5 18.5,58.5C 17.8333,58.5 17.1667,58.5 16.5,58.5C 15.8333,58.5 15.1667,58.5 14.5,58.5C 13.1266,58.6567 11.7932,58.49 10.5,58C 11.056,57.6174 11.3893,57.1174 11.5,56.5C 11.8333,56.5 12.1667,56.5 12.5,56.5C 13.6522,57.625 14.6522,57.625 15.5,56.5C 15.8333,56.5 16.1667,56.5 16.5,56.5C 18.4147,56.7845 20.0813,56.4511 21.5,55.5C 21.8333,55.5 22.1667,55.5 22.5,55.5C 22.6107,56.1174 22.944,56.6174 23.5,57C 26.8168,57.4983 30.1501,57.665 33.5,57.5C 34.1667,57.5 34.8333,57.5 35.5,57.5C 38.9387,57.7471 42.272,57.4137 45.5,56.5C 46.8333,56.5 48.1667,56.5 49.5,56.5C 50.5,56.5 51.5,56.5 52.5,56.5C 52.5,53.1667 54.1667,51.5 57.5,51.5 Z"/></g>
<g><path style="opacity:0.047" fill="#585857" d="M 18.5,59.5 C 18.5,59.1667 18.5,58.8333 18.5,58.5C 19.8333,58.5 21.1667,58.5 22.5,58.5C 23.1667,59.8333 23.8333,59.8333 24.5,58.5C 26.1667,58.5 27.8333,58.5 29.5,58.5C 30.5,59.8333 31.5,59.8333 32.5,58.5C 33.1667,58.5 33.8333,58.5 34.5,58.5C 34.0472,59.4584 33.3805,60.2917 32.5,61C 35.9532,64.0642 36.9532,63.2309 35.5,58.5C 36.1667,58.5 36.8333,58.5 37.5,58.5C 38.1667,59.8333 38.8333,59.8333 39.5,58.5C 41.5,58.5 43.5,58.5 45.5,58.5C 46.1667,59.8333 46.8333,59.8333 47.5,58.5C 48.1667,58.5 48.8333,58.5 49.5,58.5C 49.5,58.8333 49.5,59.1667 49.5,59.5C 47.9976,61.8293 48.6643,63.1627 51.5,63.5C 51.1788,65.0481 50.1788,65.7148 48.5,65.5C 47.5967,63.3796 46.2633,63.0462 44.5,64.5C 43.1667,64.5 41.8333,64.5 40.5,64.5C 38.7367,63.0462 37.4033,63.3796 36.5,65.5C 35.5,65.5 34.5,65.5 33.5,65.5C 31.8333,62.8333 30.1667,62.8333 28.5,65.5C 27.5,65.5 26.5,65.5 25.5,65.5C 24.1667,62.8333 22.8333,62.8333 21.5,65.5C 20.8333,65.5 20.5,65.1667 20.5,64.5C 20.5,64.1667 20.5,63.8333 20.5,63.5C 22.0024,61.1707 21.3357,59.8373 18.5,59.5 Z M 34.5,58.5 C 34.8333,58.5 35.1667,58.5 35.5,58.5C 36.9532,63.2309 35.9532,64.0642 32.5,61C 33.3805,60.2917 34.0472,59.4584 34.5,58.5 Z M 26.5,59.5 C 30.3368,60.203 30.5034,61.5364 27,63.5C 25.2317,62.3181 25.0651,60.9848 26.5,59.5 Z M 41.5,59.5 C 44.8606,60.2032 45.1939,61.5365 42.5,63.5C 40.3576,62.5629 40.0243,61.2296 41.5,59.5 Z"/></g>
<g><path style="opacity:0.031" fill="#959494" d="M 68.5,51.5 C 68.8333,51.5 69.1667,51.5 69.5,51.5C 69.5,52.8333 69.5,54.1667 69.5,55.5C 66.8333,56.8333 66.8333,58.1667 69.5,59.5C 69.5,60.8333 69.5,62.1667 69.5,63.5C 66.8333,64.8333 66.8333,66.1667 69.5,67.5C 69.5,67.8333 69.5,68.1667 69.5,68.5C 67.9826,68.4894 66.8159,67.8228 66,66.5C 64.955,67.3734 64.1217,68.3734 63.5,69.5C 62.5,69.5 61.5,69.5 60.5,69.5C 58.8333,65.5 57.1667,65.5 55.5,69.5C 54.5,69.5 53.5,69.5 52.5,69.5C 52.1667,68.8333 51.8333,68.1667 51.5,67.5C 52.1667,67.5 52.5,67.1667 52.5,66.5C 53.9621,67.4709 55.2954,67.1376 56.5,65.5C 57.5,65.5 58.5,65.5 59.5,65.5C 61.605,68.4017 62.9383,68.0684 63.5,64.5C 64.4916,64.6716 65.1583,64.3382 65.5,63.5C 67.6204,62.5967 67.9538,61.2633 66.5,59.5C 66.5,58.1667 66.5,56.8333 66.5,55.5C 67.1098,54.609 67.4431,53.609 67.5,52.5C 67.5,51.8333 67.8333,51.5 68.5,51.5 Z"/></g>
<g><path style="opacity:0.012" fill="#adadad" d="M 44.5,66.5 C 45.391,67.1098 46.391,67.4431 47.5,67.5C 48.1667,67.5 48.5,67.8333 48.5,68.5C 47.8333,68.5 47.5,68.8333 47.5,69.5C 46.5,69.5 45.5,69.5 44.5,69.5C 44.5,69.1667 44.5,68.8333 44.5,68.5C 44.5,67.8333 44.5,67.1667 44.5,66.5 Z"/></g>
</svg>
