<?xml version="1.0" encoding="UTF-8"?>
<svg xmlns="http://www.w3.org/2000/svg" width="19.622" height="15.937" viewBox="0 0 19.622 15.937">
  <path d="M17.605,52.054c.012.174.012.349.012.523A11.364,11.364,0,0,1,6.176,64.019,11.365,11.365,0,0,1,0,62.214a8.32,8.32,0,0,0,.971.05,8.054,8.054,0,0,0,4.993-1.718A4.029,4.029,0,0,1,2.2,57.756a5.072,5.072,0,0,0,.76.062,4.253,4.253,0,0,0,1.058-.137A4.022,4.022,0,0,1,.8,53.735v-.05a4.05,4.05,0,0,0,1.818.51A4.028,4.028,0,0,1,1.37,48.817a11.431,11.431,0,0,0,8.292,4.208,4.54,4.54,0,0,1-.1-.921,4.025,4.025,0,0,1,6.96-2.752,7.918,7.918,0,0,0,2.552-.971A4.011,4.011,0,0,1,17.306,50.6a8.062,8.062,0,0,0,2.316-.623A8.645,8.645,0,0,1,17.605,52.054Z" transform="translate(0 -48.082)" fill="#259da8"></path>
</svg>
